<?xml version="1.0" encoding="UTF-8" standalone="no"?>
<svg width="16px" height="16px" viewBox="0 0 16 16" version="1.1" xmlns="http://www.w3.org/2000/svg" xmlns:xlink="http://www.w3.org/1999/xlink" xmlns:sketch="http://www.bohemiancoding.com/sketch/ns">
    <!-- Generator: Sketch 3.2.2 (9983) - http://www.bohemiancoding.com/sketch -->
    <title>Settings icon</title>
    <desc>Created with Sketch.</desc>
    <defs></defs>
    <g id="Page-1" stroke="none" stroke-width="1" fill="none" fill-rule="evenodd" sketch:type="MSPage">
        <g id="Golf-•-List" sketch:type="MSArtboardGroup" transform="translate(-538.000000, -427.000000)" fill="#666666">
            <g id="Application" sketch:type="MSLayerGroup" transform="translate(224.000000, 28.000000)">
                <g id="Footer" transform="translate(0.000000, 389.000000)" sketch:type="MSShapeGroup">
                    <g id="Settings-icon" transform="translate(314.000000, 10.000000)">
                        <path d="M2.77061934,13.6767374 C2.73340266,13.6675952 2.69502295,13.673309 2.65780627,13.6698807 L4.06041008,12.9053639 C4.51864052,13.3041926 4.99780534,13.6504535 5.81308334,13.8938647 L5.81308334,15.4286122 C5.81308334,15.7440183 6.07360014,16 6.39459404,16 L9.88365826,16 C10.2046522,16 10.465169,15.7440183 10.465169,15.4286122 L10.465169,13.8184415 C11.1106458,13.5178916 11.6351685,13.2161988 12.0503671,12.9053639 L13.3738855,13.6881651 C13.5064699,13.7670166 13.6681299,13.7898722 13.8193227,13.7521606 C13.9693525,13.7133062 14.0996109,13.617313 14.1775333,13.4847511 L15.9220654,10.5158203 C16.0825623,10.2415542 15.9871946,9.89300764 15.7092325,9.73530462 L14.3205849,8.94793229 C14.4206048,8.3125491 14.4206048,7.68630812 14.3205849,7.05321048 L15.7092325,6.26583815 C15.8418169,6.18927219 15.9395107,6.06470966 15.9802165,5.9184344 C16.0197592,5.77215913 15.9988248,5.61559889 15.9220654,5.48532248 L14.1775333,2.51639169 C14.0996109,2.38268695 13.9705155,2.28669381 13.8193227,2.24898222 C13.6681299,2.21012785 13.507633,2.23412613 13.3738855,2.31183487 L12.0492041,3.0946361 C11.6340055,2.78380116 11.1106458,2.48210842 10.465169,2.18155846 L10.465169,0.572530534 C10.465169,0.255981716 10.2046522,0 9.88365826,0 L6.39459404,0 C6.07360014,0 5.81308334,0.255981716 5.81308334,0.572530534 L5.81308334,2.10727805 C5.00710951,2.34840369 4.52794469,2.69123634 4.06506217,3.09349332 L2.64617605,2.30497822 C2.36937696,2.1518463 2.0181445,2.24326834 1.85764754,2.51410614 L0.0956701129,5.48189415 C0.0177476788,5.61331333 -0.00434972793,5.76987358 0.0351929999,5.91614885 C0.0747357276,6.06356689 0.172429526,6.18812942 0.306176987,6.26469538 L1.68552037,7.05092493 C1.58433751,7.68973645 1.58317449,8.31483465 1.68203131,8.94678952 L0.291057709,9.73530462 C0.157310247,9.81072781 0.0596164494,9.93529034 0.0200737216,10.0827084 C-0.0206320276,10.2278409 0.0014653791,10.3844011 0.0782247918,10.5158203 L1.82159388,13.4847511 C1.92277674,13.6573102 2.10304506,13.7487322 2.29261755,13.7590172 L2.77061934,13.6767374 Z M5,8 C5,6.34314575 6.34651712,5 8,5 C9.65685425,5 11,6.34651712 11,8 C11,9.65685425 9.65348288,11 8,11 C6.34314575,11 5,9.65348288 5,8 Z" id="icon-settings"></path>
                    </g>
                </g>
            </g>
        </g>
    </g>
</svg>