<?xml version="1.0" encoding="UTF-8" standalone="no"?>
<svg width="10px" height="12px" viewBox="0 0 10 12" version="1.1" xmlns="http://www.w3.org/2000/svg" xmlns:xlink="http://www.w3.org/1999/xlink" xmlns:sketch="http://www.bohemiancoding.com/sketch/ns">
    <!-- Generator: Sketch 3.3.2 (12043) - http://www.bohemiancoding.com/sketch -->
    <title>icon-private</title>
    <desc>Created with Sketch.</desc>
    <defs></defs>
    <g id="version-0.1.4" stroke="none" stroke-width="1" fill="none" fill-rule="evenodd" sketch:type="MSPage">
        <g id="Squid-•-Actions" sketch:type="MSArtboardGroup" transform="translate(-276.000000, -224.000000)" fill="#666666">
            <g id="Application" sketch:type="MSLayerGroup" transform="translate(224.000000, 28.000000)">
                <g id="List" transform="translate(0.000000, 70.000000)" sketch:type="MSShapeGroup">
                    <g id="Repo" transform="translate(0.000000, 110.000000)">
                        <path d="M53.999615,20 C52.8874333,20 52,20.8945804 52,21.9981014 L52,26.0018986 C52,27.1132936 52.8952581,28 53.999615,28 L60.000385,28 C61.1125667,28 62,27.1054196 62,26.0018986 L62,21.9981014 C62,20.8867064 61.1047419,20 60.000385,20 L60,19.0016655 C60,17.3390201 58.6568542,16 57,16 C55.3465171,16 54,17.3438914 54,19.0016655 L54,20 L53.999615,20 Z M56,19 C56,18.4477153 56.4438648,18 57,18 C57.5522847,18 58,18.4438648 58,19 L58,20 L56,20 L56,19 Z M56,24 C56,23.4477153 56.4438648,23 57,23 L57,23 C57.5522847,23 58,23.4438648 58,24 L58,24 C58,24.5522847 57.5561352,25 57,25 L57,25 C56.4477153,25 56,24.5561352 56,24 L56,24 Z" id="icon-private"></path>
                    </g>
                </g>
            </g>
        </g>
    </g>
</svg>