<svg class="icon icon-search" width="22px" height="22px" viewBox="0 0 22 22" version="1.1" xmlns="http://www.w3.org/2000/svg" xmlns:xlink="http://www.w3.org/1999/xlink" xmlns:sketch="http://www.bohemiancoding.com/sketch/ns">
    <g stroke="none" stroke-width="1" fill="none" fill-rule="evenodd">
        <g transform="translate(-68.000000, -18.000000)" stroke="#ACACAC" stroke-width="2">
            <path d="M82.8242633,30.8813044 C83.5666745,29.7705122 84,28.4357337 84,27 C84,23.1418733 80.8659932,20 77,20 C73.1418733,20 70,23.1340068 70,27 C70,30.8581267 73.1340068,34 77,34 C78.8982388,34 80.623091,33.2413375 81.8856578,32.0101005 C81.9134117,32.2199261 82.0081931,32.4224067 82.1694729,32.5836864 L86.4163136,36.8305271 C86.8009753,37.2151889 87.4379028,37.2189514 87.8284271,36.8284271 C88.2216741,36.4351802 88.2198916,35.8056781 87.8305271,35.4163136 L83.5836864,31.1694729 C83.3774445,30.9632309 83.0986831,30.8664869 82.8242633,30.8813044 Z"></path>
        </g>
    </g>
</svg>